<svg xmlns="http://www.w3.org/2000/svg" viewBox="0 0 720 600" role="img" aria-labelledby="title">
  <title id="title">Folded woven throws</title>
  <rect width="720" height="600" fill="#e7ddcf"/>
  <path d="M116 74h438c49 0 88 39 88 88v280c0 46-37 84-84 84H92c-39 0-70-31-70-70V168c0-52 42-94 94-94z" fill="#dbc59f"/>
  <path d="M86 132h492v334H86z" fill="#efe3ce"/>
  <path d="M86 160h492M86 218h492M86 276h492M86 334h492M86 392h492M86 450h492" stroke="#d6b487" stroke-width="18"/>
  <path d="M146 132v334M236 132v334M326 132v334M416 132v334M506 132v334" stroke="#6e815e" stroke-width="18" opacity=".78"/>
  <path d="M86 248h492M86 404h492" stroke="#284866" stroke-width="26" opacity=".82"/>
  <path d="M86 306h492" stroke="#a4563c" stroke-width="20" opacity=".88"/>
  <path d="M72 506c86 35 182 46 288 32 118-16 206-5 265 35" stroke="#8d7258" stroke-width="36" fill="none" stroke-linecap="round"/>
  <path d="M110 536v44M158 548v38M206 552v34M254 552v38M302 548v44" stroke="#efe3ce" stroke-width="9" stroke-linecap="round"/>
</svg>
